<?xml version="1.0" encoding="iso-8859-1"?>
<!-- Generator: Adobe Illustrator 19.0.0, SVG Export Plug-In . SVG Version: 6.00 Build 0)  -->
<svg xmlns="http://www.w3.org/2000/svg" xmlns:xlink="http://www.w3.org/1999/xlink" version="1.1" id="Capa_1" x="0px" y="0px" viewBox="0 0 480 480" style="enable-background:new 0 0 480 480;" xml:space="preserve" width="512px" height="512px">
<g>
	<g>
		<path d="M480,248v-64c0-4.424-3.584-8-8-8h-64v16h41.904L325.88,295.352l-180.176-39.168c-1.16-0.24-2.376-0.24-3.528,0.032    L98.232,266.56l-4.304-8.616l-4.936,2.464l2.928-6l-13.52-6.6l8.368-4.184l-7.16-14.312l-14.312,7.16l7.16,14.312L77,248.512    l-6.48,13.264l9.832,4.8l1.872,3.752L16,285.896v-150l13.512-6.76l-6.36-12.72L16,120V0H0v472c0,4.424,3.584,8,8,8h472v-16H16    v-54.16l5.696-11.664L16,395.4v-17.8l12.72,6.208l7.016-14.376l-14.376-7.016L16,373.4v-71.056l43.64-10.272l11.2,5.48l4.48-9.168    l68.744-16.176l182.232,39.616c0.568,0.112,1.136,0.176,1.704,0.176c1.856,0,3.672-0.648,5.12-1.848L464,201.08V248H480z" fill="#006DF0"/>
	</g>
</g>
<g>
	<g>
		<path d="M408,0c-39.696,0-72,32.296-72,72s32.304,72,72,72s72-32.296,72-72S447.696,0,408,0z M408,128c-30.88,0-56-25.128-56-56    s25.12-56,56-56s56,25.128,56,56S438.88,128,408,128z" fill="#006DF0"/>
	</g>
</g>
<g>
	<g>
		<path d="M408,32c-13.232,0-24,10.768-24,24h16c0-4.416,3.592-8,8-8c4.408,0,8,3.584,8,8s-3.592,8-8,8c-4.416,0-8,3.576-8,8v16h16    v-9.368c9.312-3.304,16-12.2,16-22.632C432,42.768,421.232,32,408,32z" fill="#006DF0"/>
	</g>
</g>
<g>
	<g>
		<rect x="400" y="96" width="16" height="16" fill="#006DF0"/>
	</g>
</g>
<g>
	<g>
		<rect x="208" y="56" width="16" height="16" fill="#006DF0"/>
	</g>
</g>
<g>
	<g>
		<rect x="240" y="56" width="16" height="16" fill="#006DF0"/>
	</g>
</g>
<g>
	<g>
		<rect x="272" y="56" width="16" height="16" fill="#006DF0"/>
	</g>
</g>
<g>
	<g>
		<rect x="304" y="56" width="16" height="16" fill="#006DF0"/>
	</g>
</g>
<g>
	<g>
		<rect x="31.057" y="336.339" transform="matrix(0.4386 -0.8987 0.8987 0.4386 -287.522 228.4131)" width="16" height="15.992" fill="#006DF0"/>
	</g>
</g>
<g>
	<g>
		<rect x="87.255" y="221.339" transform="matrix(0.4394 -0.8983 0.8983 0.4394 -152.6136 214.1356)" width="16" height="16" fill="#006DF0"/>
	</g>
</g>
<g>
	<g>
		<rect x="115.342" y="163.821" transform="matrix(0.4394 -0.8983 0.8983 0.4394 -85.1998 207.1209)" width="16" height="16" fill="#006DF0"/>
	</g>
</g>
<g>
	<g>
		<rect x="157.466" y="77.572" transform="matrix(0.4386 -0.8987 0.8987 0.4386 15.9948 196.7405)" width="16" height="15.992" fill="#006DF0"/>
	</g>
</g>
<g>
	<g>
		<rect x="45.125" y="307.637" transform="matrix(0.4386 -0.8987 0.8987 0.4386 -253.8301 224.9414)" width="16" height="15.992" fill="#006DF0"/>
	</g>
</g>
<g>
	<g>
		<rect x="101.278" y="192.542" transform="matrix(0.4386 -0.8987 0.8987 0.4386 -118.8714 210.7901)" width="16" height="15.992" fill="#006DF0"/>
	</g>
</g>
<g>
	<g>
		<rect x="176" y="56" width="16" height="16" fill="#006DF0"/>
	</g>
</g>
<g>
	<g>
		<rect x="129.377" y="135.094" transform="matrix(0.4386 -0.8987 0.8987 0.4386 -51.4684 203.7911)" width="16" height="15.992" fill="#006DF0"/>
	</g>
</g>
<g>
	<g>
		<rect x="143.425" y="106.322" transform="matrix(0.4394 -0.8983 0.8983 0.4394 -17.8054 200.1125)" width="16" height="16" fill="#006DF0"/>
	</g>
</g>
<g>
	<g>
		<rect x="96.631" y="289.28" transform="matrix(0.8944 -0.4472 0.4472 0.8944 -121.9012 78.1771)" width="16" height="15.999" fill="#006DF0"/>
	</g>
</g>
<g>
	<g>
		<rect x="110.948" y="317.932" transform="matrix(0.8944 -0.4472 0.4472 0.8944 -133.204 87.6048)" width="15.999" height="16" fill="#006DF0"/>
	</g>
</g>
<g>
	<g>
		
			<rect x="125.264" y="346.55" transform="matrix(0.8944 -0.4472 0.4472 0.8944 -144.4909 97.0289)" width="15.999" height="15.999" fill="#006DF0"/>
	</g>
</g>
<g>
	<g>
		<rect x="144" y="368" width="16" height="16" fill="#006DF0"/>
	</g>
</g>
<g>
	<g>
		<rect x="39.393" y="174.798" transform="matrix(0.8944 -0.4472 0.4472 0.8944 -76.7468 40.4932)" width="15.999" height="16" fill="#006DF0"/>
	</g>
</g>
<g>
	<g>
		<rect x="25.079" y="146.173" transform="matrix(0.8944 -0.4472 0.4472 0.8944 -65.4561 31.0699)" width="16" height="16" fill="#006DF0"/>
	</g>
</g>
<g>
	<g>
		<rect x="53.708" y="203.431" transform="matrix(0.8944 -0.4472 0.4472 0.8944 -88.0383 49.9173)" width="16" height="15.992" fill="#006DF0"/>
	</g>
</g>
<g>
	<g>
		<path d="M408,304c-39.696,0-72,32.296-72,72c0,39.704,32.304,72,72,72s72-32.296,72-72C480,336.296,447.696,304,408,304z M408,432    c-30.88,0-56-25.128-56-56s25.12-56,56-56s56,25.128,56,56S438.88,432,408,432z" fill="#006DF0"/>
	</g>
</g>
<g>
	<g>
		<path d="M408,336c-13.232,0-24,10.768-24,24h16c0-4.416,3.592-8,8-8c4.408,0,8,3.584,8,8c0,4.416-3.592,8-8,8    c-4.416,0-8,3.576-8,8v16h16v-9.368c9.312-3.304,16-12.2,16-22.632C432,346.768,421.232,336,408,336z" fill="#006DF0"/>
	</g>
</g>
<g>
	<g>
		<rect x="400" y="400" width="16" height="16" fill="#006DF0"/>
	</g>
</g>
<g>
	<g>
		<rect x="304" y="368" width="16" height="16" fill="#006DF0"/>
	</g>
</g>
<g>
	<g>
		<rect x="272" y="368" width="16" height="16" fill="#006DF0"/>
	</g>
</g>
<g>
	<g>
		<rect x="240" y="368" width="16" height="16" fill="#006DF0"/>
	</g>
</g>
<g>
	<g>
		<rect x="208" y="368" width="16" height="16" fill="#006DF0"/>
	</g>
</g>
<g>
	<g>
		<rect x="176" y="368" width="16" height="16" fill="#006DF0"/>
	</g>
</g>
<g>
</g>
<g>
</g>
<g>
</g>
<g>
</g>
<g>
</g>
<g>
</g>
<g>
</g>
<g>
</g>
<g>
</g>
<g>
</g>
<g>
</g>
<g>
</g>
<g>
</g>
<g>
</g>
<g>
</g>
</svg>
